<?xml version="1.0" encoding="iso-8859-1"?>
<!-- Generator: Adobe Illustrator 19.0.0, SVG Export Plug-In . SVG Version: 6.00 Build 0)  -->
<svg version="1.1" id="Layer_1" xmlns="http://www.w3.org/2000/svg" xmlns:xlink="http://www.w3.org/1999/xlink" x="0px" y="0px"
	 viewBox="0 0 473.931 473.931" style="enable-background:new 0 0 473.931 473.931;" xml:space="preserve">
<circle style="fill:#D62127;" cx="236.966" cy="236.966" r="236.966"/>
<path style="fill:#FCC288;" d="M110.333,230.433c3.005,3.753,5.257,5.268,6.006,9.018c-6.006,3.012-12.007,15.031-12.007,18.787
	c0.737,25.541,24.789,30.81,24.789,30.81s0,0,72.126,0c5.265,0.745,1.5,15.027-1.5,20.28
	c-12.767,22.544-20.284,42.824-20.284,53.358c4.501,51.857,39.82,42.817,41.316,37.567c0.752-52.602,12.782-64.62,26.308-73.642
	c13.53-9.003,15.034-19.536,30.802-55.603c15.779-36.063,45.092-24.045,45.092-24.045s-0.752-11.266-0.752-117.211
	c-88.668-16.539-139.014-14.282-162.299-12.03c-23.307,2.253-30.81,18.028-30.81,26.293c0,9.77-3.008,15.046-6.769,17.283
	c-16.531,13.534-11.27,18.035-6.765,27.801c4.513,9.777,3.001,12.782-4.505,19.543C102.21,216.18,107.325,226.691,110.333,230.433z"
	/>
<path style="fill:#5C524A;" d="M326.76,250.728h45.788c2.503,0,4.531-2.024,4.531-4.539V126.771c0-2.496-2.028-4.543-4.531-4.543
	H326.76c-2.503,0-4.531,2.047-4.531,4.543v119.418C322.233,248.704,324.261,250.728,326.76,250.728z"/>
<g>
</g>
<g>
</g>
<g>
</g>
<g>
</g>
<g>
</g>
<g>
</g>
<g>
</g>
<g>
</g>
<g>
</g>
<g>
</g>
<g>
</g>
<g>
</g>
<g>
</g>
<g>
</g>
<g>
</g>
</svg>
